<svg id="visual" viewBox="0 0 900 600" width="900" height="600" xmlns="http://www.w3.org/2000/svg" xmlns:xlink="http://www.w3.org/1999/xlink" version="1.1"><path d="M0 37L16.7 41C33.3 45 66.7 53 100 51C133.3 49 166.7 37 200 33C233.3 29 266.7 33 300 40C333.3 47 366.7 57 400 59C433.3 61 466.7 55 500 50C533.3 45 566.7 41 600 44C633.3 47 666.7 57 700 58C733.3 59 766.7 51 800 44C833.3 37 866.7 31 883.3 28L900 25L900 0L883.3 0C866.7 0 833.3 0 800 0C766.7 0 733.3 0 700 0C666.7 0 633.3 0 600 0C566.7 0 533.3 0 500 0C466.7 0 433.3 0 400 0C366.7 0 333.3 0 300 0C266.7 0 233.3 0 200 0C166.7 0 133.3 0 100 0C66.7 0 33.3 0 16.7 0L0 0Z" fill="#54bf98"></path><path d="M0 109L16.7 112C33.3 115 66.7 121 100 119C133.3 117 166.7 107 200 110C233.3 113 266.7 129 300 140C333.3 151 366.7 157 400 155C433.3 153 466.7 143 500 138C533.3 133 566.7 133 600 138C633.3 143 666.7 153 700 157C733.3 161 766.7 159 800 147C833.3 135 866.7 113 883.3 102L900 91L900 23L883.3 26C866.7 29 833.3 35 800 42C766.7 49 733.3 57 700 56C666.7 55 633.3 45 600 42C566.7 39 533.3 43 500 48C466.7 53 433.3 59 400 57C366.7 55 333.3 45 300 38C266.7 31 233.3 27 200 31C166.7 35 133.3 47 100 49C66.7 51 33.3 43 16.7 39L0 35Z" fill="#0ea69e"></path><path d="M0 271L16.7 266C33.3 261 66.7 251 100 252C133.3 253 166.7 265 200 269C233.3 273 266.7 269 300 277C333.3 285 366.7 305 400 304C433.3 303 466.7 281 500 268C533.3 255 566.7 251 600 267C633.3 283 666.7 319 700 330C733.3 341 766.7 327 800 316C833.3 305 866.7 297 883.3 293L900 289L900 89L883.3 100C866.7 111 833.3 133 800 145C766.7 157 733.3 159 700 155C666.7 151 633.3 141 600 136C566.7 131 533.3 131 500 136C466.7 141 433.3 151 400 153C366.7 155 333.3 149 300 138C266.7 127 233.3 111 200 108C166.7 105 133.3 115 100 117C66.7 119 33.3 113 16.7 110L0 107Z" fill="#008b9b"></path><path d="M0 355L16.7 347C33.3 339 66.7 323 100 325C133.3 327 166.7 347 200 351C233.3 355 266.7 343 300 351C333.3 359 366.7 387 400 397C433.3 407 466.7 399 500 391C533.3 383 566.7 375 600 385C633.3 395 666.7 423 700 431C733.3 439 766.7 427 800 418C833.3 409 866.7 403 883.3 400L900 397L900 287L883.3 291C866.7 295 833.3 303 800 314C766.7 325 733.3 339 700 328C666.7 317 633.3 281 600 265C566.7 249 533.3 253 500 266C466.7 279 433.3 301 400 302C366.7 303 333.3 283 300 275C266.7 267 233.3 271 200 267C166.7 263 133.3 251 100 250C66.7 249 33.3 259 16.7 264L0 269Z" fill="#006f8d"></path><path d="M0 433L16.7 420C33.3 407 66.7 381 100 378C133.3 375 166.7 395 200 396C233.3 397 266.7 379 300 390C333.3 401 366.7 441 400 455C433.3 469 466.7 457 500 446C533.3 435 566.7 425 600 435C633.3 445 666.7 475 700 480C733.3 485 766.7 465 800 452C833.3 439 866.7 433 883.3 430L900 427L900 395L883.3 398C866.7 401 833.3 407 800 416C766.7 425 733.3 437 700 429C666.7 421 633.3 393 600 383C566.7 373 533.3 381 500 389C466.7 397 433.3 405 400 395C366.7 385 333.3 357 300 349C266.7 341 233.3 353 200 349C166.7 345 133.3 325 100 323C66.7 321 33.3 337 16.7 345L0 353Z" fill="#175478"></path><path d="M0 565L16.7 564C33.3 563 66.7 561 100 560C133.3 559 166.7 559 200 558C233.3 557 266.7 555 300 558C333.3 561 366.7 569 400 573C433.3 577 466.7 577 500 576C533.3 575 566.7 573 600 571C633.3 569 666.7 567 700 566C733.3 565 766.7 565 800 559C833.3 553 866.7 541 883.3 535L900 529L900 425L883.3 428C866.7 431 833.3 437 800 450C766.7 463 733.3 483 700 478C666.7 473 633.3 443 600 433C566.7 423 533.3 433 500 444C466.7 455 433.3 467 400 453C366.7 439 333.3 399 300 388C266.7 377 233.3 395 200 394C166.7 393 133.3 373 100 376C66.7 379 33.3 405 16.7 418L0 431Z" fill="#23395d"></path><path d="M0 601L16.7 601C33.3 601 66.7 601 100 601C133.3 601 166.7 601 200 601C233.3 601 266.7 601 300 601C333.3 601 366.7 601 400 601C433.3 601 466.7 601 500 601C533.3 601 566.7 601 600 601C633.3 601 666.7 601 700 601C733.3 601 766.7 601 800 601C833.3 601 866.7 601 883.3 601L900 601L900 527L883.3 533C866.7 539 833.3 551 800 557C766.7 563 733.3 563 700 564C666.7 565 633.3 567 600 569C566.7 571 533.3 573 500 574C466.7 575 433.3 575 400 571C366.7 567 333.3 559 300 556C266.7 553 233.3 555 200 556C166.7 557 133.3 557 100 558C66.7 559 33.3 561 16.7 562L0 563Z" fill="#242040"></path></svg>