<svg id="visual" viewBox="0 0 900 600" width="900" height="600" xmlns="http://www.w3.org/2000/svg" xmlns:xlink="http://www.w3.org/1999/xlink" version="1.1"><path d="M0 73L53 73L53 31L106 31L106 67L159 67L159 37L212 37L212 67L265 67L265 61L318 61L318 55L371 55L371 61L424 61L424 49L476 49L476 31L529 31L529 67L582 67L582 37L635 37L635 67L688 67L688 37L741 37L741 37L794 37L794 37L847 37L847 67L900 67L900 37L900 0L900 0L847 0L847 0L794 0L794 0L741 0L741 0L688 0L688 0L635 0L635 0L582 0L582 0L529 0L529 0L476 0L476 0L424 0L424 0L371 0L371 0L318 0L318 0L265 0L265 0L212 0L212 0L159 0L159 0L106 0L106 0L53 0L53 0L0 0Z" fill="#242040"></path><path d="M0 121L53 121L53 91L106 91L106 109L159 109L159 97L212 97L212 133L265 133L265 127L318 127L318 103L371 103L371 115L424 115L424 91L476 91L476 79L529 79L529 121L582 121L582 103L635 103L635 115L688 115L688 121L741 121L741 109L794 109L794 79L847 79L847 115L900 115L900 103L900 35L900 65L847 65L847 35L794 35L794 35L741 35L741 35L688 35L688 65L635 65L635 35L582 35L582 65L529 65L529 29L476 29L476 47L424 47L424 59L371 59L371 53L318 53L318 59L265 59L265 65L212 65L212 35L159 35L159 65L106 65L106 29L53 29L53 71L0 71Z" fill="#23395d"></path><path d="M0 283L53 283L53 247L106 247L106 235L159 235L159 295L212 295L212 289L265 289L265 289L318 289L318 205L371 205L371 223L424 223L424 313L476 313L476 199L529 199L529 307L582 307L582 241L635 241L635 247L688 247L688 295L741 295L741 223L794 223L794 235L847 235L847 337L900 337L900 265L900 101L900 113L847 113L847 77L794 77L794 107L741 107L741 119L688 119L688 113L635 113L635 101L582 101L582 119L529 119L529 77L476 77L476 89L424 89L424 113L371 113L371 101L318 101L318 125L265 125L265 131L212 131L212 95L159 95L159 107L106 107L106 89L53 89L53 119L0 119Z" fill="#175478"></path><path d="M0 373L53 373L53 403L106 403L106 373L159 373L159 385L212 385L212 421L265 421L265 421L318 421L318 379L371 379L371 403L424 403L424 409L476 409L476 373L529 373L529 433L582 433L582 439L635 439L635 385L688 385L688 421L741 421L741 391L794 391L794 379L847 379L847 439L900 439L900 385L900 263L900 335L847 335L847 233L794 233L794 221L741 221L741 293L688 293L688 245L635 245L635 239L582 239L582 305L529 305L529 197L476 197L476 311L424 311L424 221L371 221L371 203L318 203L318 287L265 287L265 287L212 287L212 293L159 293L159 233L106 233L106 245L53 245L53 281L0 281Z" fill="#006f8d"></path><path d="M0 451L53 451L53 481L106 481L106 439L159 439L159 457L212 457L212 493L265 493L265 505L318 505L318 469L371 469L371 469L424 469L424 463L476 463L476 427L529 427L529 493L582 493L582 487L635 487L635 433L688 433L688 481L741 481L741 475L794 475L794 433L847 433L847 493L900 493L900 451L900 383L900 437L847 437L847 377L794 377L794 389L741 389L741 419L688 419L688 383L635 383L635 437L582 437L582 431L529 431L529 371L476 371L476 407L424 407L424 401L371 401L371 377L318 377L318 419L265 419L265 419L212 419L212 383L159 383L159 371L106 371L106 401L53 401L53 371L0 371Z" fill="#008b9b"></path><path d="M0 565L53 565L53 547L106 547L106 559L159 559L159 565L212 565L212 541L265 541L265 553L318 553L318 571L371 571L371 547L424 547L424 547L476 547L476 565L529 565L529 553L582 553L582 547L635 547L635 541L688 541L688 565L741 565L741 553L794 553L794 553L847 553L847 565L900 565L900 571L900 449L900 491L847 491L847 431L794 431L794 473L741 473L741 479L688 479L688 431L635 431L635 485L582 485L582 491L529 491L529 425L476 425L476 461L424 461L424 467L371 467L371 467L318 467L318 503L265 503L265 491L212 491L212 455L159 455L159 437L106 437L106 479L53 479L53 449L0 449Z" fill="#0ea69e"></path><path d="M0 601L53 601L53 601L106 601L106 601L159 601L159 601L212 601L212 601L265 601L265 601L318 601L318 601L371 601L371 601L424 601L424 601L476 601L476 601L529 601L529 601L582 601L582 601L635 601L635 601L688 601L688 601L741 601L741 601L794 601L794 601L847 601L847 601L900 601L900 601L900 569L900 563L847 563L847 551L794 551L794 551L741 551L741 563L688 563L688 539L635 539L635 545L582 545L582 551L529 551L529 563L476 563L476 545L424 545L424 545L371 545L371 569L318 569L318 551L265 551L265 539L212 539L212 563L159 563L159 557L106 557L106 545L53 545L53 563L0 563Z" fill="#54bf98"></path></svg>