<svg id="visual" viewBox="0 0 960 540" width="960" height="540" xmlns="http://www.w3.org/2000/svg" xmlns:xlink="http://www.w3.org/1999/xlink" version="1.1"><rect x="0" y="0" width="960" height="540" fill="#242040"></rect><path d="M0 254L20 244.8C40 235.7 80 217.3 120 232.7C160 248 200 297 240 305.7C280 314.3 320 282.7 360 281.7C400 280.7 440 310.3 480 317.5C520 324.7 560 309.3 600 298C640 286.7 680 279.3 720 272.2C760 265 800 258 840 263.5C880 269 920 287 940 296L960 305L960 541L940 541C920 541 880 541 840 541C800 541 760 541 720 541C680 541 640 541 600 541C560 541 520 541 480 541C440 541 400 541 360 541C320 541 280 541 240 541C200 541 160 541 120 541C80 541 40 541 20 541L0 541Z" fill="#54bf98" stroke-linecap="round" stroke-linejoin="miter"></path></svg>